<?xml version="1.0" encoding="utf-8"?>
<!-- Generator: Adobe Illustrator 17.1.0, SVG Export Plug-In . SVG Version: 6.00 Build 0)  -->
<!DOCTYPE svg PUBLIC "-//W3C//DTD SVG 1.1//EN" "http://www.w3.org/Graphics/SVG/1.1/DTD/svg11.dtd">
<svg version="1.1" id="bike-7" xmlns="http://www.w3.org/2000/svg" xmlns:xlink="http://www.w3.org/1999/xlink" x="0px" y="0px"
	 viewBox="0 0 1010 575.0654" enable-background="new 0 0 1010 575.0654" xml:space="preserve">
<path id="bike-7-bike-7" fill="#3E5266" d="M480.3687,398.4043c-1.085-2.8867-1.0044-6.0342,0.2778-8.8321
	c1.2734-2.833,3.5781-4.9853,6.456-6.0703c1.3184-0.4931,2.6993-0.7529,4.0801-0.7529l-0.1079-0.2871
	c-1.3809,0.0088-2.7436,0.2695-4.0439,0.7529c-1.9458,0.7354-3.6226,1.9639-4.9947,3.6592l-0.6543,0.8154
	c-0.4121,0.5742-0.7353,1.166-0.9951,1.749c-0.7178,1.5508-1.0674,3.1915-1.0674,4.8868c0,1.4345,0.251,2.8418,0.7178,4.0527
	l2.4121,6.4023l-279.1133-22.4619c-3.9721-0.3232-7.4511-2.6269-9.2983-6.1416c-1.856-3.5332-1.7754-7.6933,0.2153-11.164
	l162.708-283.2198L367.7393,109.5l-0.8877,1.5512c-29.3033,51.0025-123.6319,215.19-143.4483,249.6665l250.2764,20.1573
	L348.0034,57.9736l4.1782-1.0137c5.3892-1.3134,10.3477-2.7929,14.9473-4.165l3.3179-0.9951l8.9487,22.9638h298.3818l8.9942,23.1382
	H388.3979L494.7598,371.209l202.0986-247.376l9.6484,24.7661L504.543,395.8222l-2.3672-5.9179
	c-1.1572-2.8604-3.3184-5.1377-6.0977-6.3936c-0.4214-0.1875-0.8427-0.3408-1.2553-0.4844l-0.2066,0.252
	c3.3359,1.0576,6.1245,3.5859,7.3975,6.9756l2.3496,6.2314l35.4629-43.4072l2.8603,3.9814
	c7.7832,10.8584,11.8986,23.5909,11.8986,36.8164c0,20.2647-9.8721,39.4717-26.4248,51.4151l-3.9805,2.8691l-12.6074-33.4277
	l6.5459-3.5508l5.0927,6.9942c5.3438-6.9942,8.2315-15.4581,8.2315-24.2999c0-0.3398-0.0088-0.6992-0.0176-1.0488l-25.3037,8.3301
	l28.5137,75.6514h15.9423l0.1973,23.1513h-54.3916l-0.1792-23.1513h13.7105L480.3687,398.4043z M601.4355,370.7871
	c0,112.6387,91.6387,204.2783,204.2872,204.2783c112.6386,0,204.2773-91.6396,204.2773-204.2783
	c0-112.6162-91.6387-204.2461-204.2773-204.2461c-20.0049,0-39.8663,2.9365-59.0273,8.7295l-3.9005,1.1836l8.4375,21.6181
	l3.3087-0.9775c16.6504-4.9131,33.8672-7.4063,51.1816-7.4063c99.8789,0,181.1347,81.2422,181.1347,181.0987
	c0,99.8799-81.2558,181.1435-181.1347,181.1435S624.5879,470.667,624.5879,370.7871c0-69.5088,38.8613-131.7998,101.4297-162.5645
	l3.1035-1.5288l-8.4297-21.6411l-3.6582,1.7754C646.8066,220.7983,601.4355,293.0107,601.4355,370.7871z M838.7109,114.1181
	c2.17-2.1298,3.3887-5.0488,3.3887-8.1777c0-3.0757-1.2012-5.9897-3.3887-8.1689l-8.3925-8.3926v-32.105
	c0-18.0366-5.6319-35.2788-16.2657-49.8364c-3.623-4.9629-11.1904-6.1465-16.1757-2.5059
	c-2.2774,1.6631-3.8029,4.0977-4.3672,6.9043l-7.7735,4.5952C775.0479,5.9443,760.6289,0,745.7002,0
	c-12.7959,0-24.9092,4.1426-35.0508,11.9795c-6.7431,5.2495-7.9805,14.9829-2.7617,21.7212
	c2.9502,3.8061,7.4062,6.0078,12.2305,6.0078c0,0,0,0,0.0089,0c3.4609,0,6.7245-1.1255,9.4687-3.2461
	c4.6445-3.6001,10.2129-5.5054,16.1045-5.5054c14.5166,0,26.3252,11.8091,26.3252,26.3169
	c0,14.5171-11.8086,26.3218-26.3252,26.3218c-8.5273,0-15.4678,6.9492-15.4678,15.4897c0,8.523,6.9406,15.4629,15.4678,15.4629
	c31.5889,0,57.2783-25.6938,57.2783-57.2744c0-4.7563-0.583-9.4595-1.748-14.0464l3.748-2.2056
	c1.461,5.313,2.2051,10.7603,2.2051,16.252v36.8979c0,3.0889,1.1934,5.9893,3.3896,8.1773l11.7823,11.7778
	c2.1699,2.1787,5.0752,3.3897,8.1601,3.3897C833.627,117.5166,836.5313,116.3056,838.7109,114.1181z M705.7354,17.9062
	l2.2959-5.2549h-37.1934c-3.8467,0-7.4063,1.8965-9.5586,5.0621c-2.1436,3.1381-2.6094,7.1508-1.2285,10.7016l134.9023,346.5596
	c1.7041,4.4209,6.044,7.3799,10.7696,7.3799c1.4434,0,2.8419-0.2784,4.205-0.7891c4.4746-1.749,7.3711-5.9805,7.3711-10.7783
	c0-1.461-0.2607-2.8779-0.8164-4.2139L687.7578,35.8037h20.291l-2.3134-5.2681c-0.9141-2.0893-1.3809-4.2055-1.3809-6.2944
	C704.3545,22.1606,704.8301,20.0312,705.7354,17.9062z M446.3135,24.9717c0-12.1543-9.8814-22.022-22.0401-22.022H275.0957
	c-4.6269,0-8.5273,1.1836-11.6113,3.5195c-3.9102,2.9458-6.0708,7.3482-6.0708,12.396c0,17.6289,30.6655,42.148,60.8471,42.148
	c20.3995,0,36.7994-4.9136,49.9893-8.855c9.3164-2.7969,17.2695-5.1602,24.0576-5.1602h31.9658
	C436.4321,46.998,446.3135,37.1216,446.3135,24.9717z M0,370.7871c0,112.6387,91.6299,204.2783,204.2773,204.2783
	c85.1382,0,161.668-53.3252,191.3926-132.9844l53.3516,8.5811l2.914-6.6709c-3.4794-2.7168-6.6357-5.7393-9.3881-8.9844
	l-0.8877-1.0586l-41.1299-6.626c2.3403-8.0527,4.1606-16.2119,5.4516-24.3173l0.6543-4.0176l-23.1513-1.8653l-0.565,3.4073
	c-1.2641,7.6396-3.0932,15.3955-5.4516,23.08L232.1099,400.207l-1.3179,1.1299c-2.6904,2.3135-5.667,4.2773-8.8233,5.8369
	l-10.5717,5.2002l160.8882,25.9316c-27.483,68.1465-94.419,113.625-168.0079,113.625c-99.8789,0-181.1523-81.2636-181.1523-181.1435
	c0-99.8565,81.2734-181.0987,181.1523-181.0987c26.6939,0,52.4639,5.7295,76.584,17.0547L284,208.209l11.5576-20.1299l-3.6494-1.753
	c-27.5454-13.1269-57.0366-19.7851-87.6309-19.7851C91.6299,166.541,0,258.1709,0,370.7871z M491.1553,457.3066
	c1.9814,0,3.9365-0.126,5.8554-0.2959l4.9405-0.4219l-8.4463-22.416l-2.5825-0.0185c-4.5103-0.0362-8.9126-0.8155-13.1275-2.3223
	l9.7832-13.3955l-5.0039-13.334l-13.1445-1.0488l-10.312,14.1221c-2.9683-3.918-5.2183-8.3565-6.5904-13.0645l-0.7353-2.4922
	l-23.8066-1.9101l0.8876,4.8154C434.4775,435.5439,460.6777,457.3066,491.1553,457.3066z M380.8838,330.6709l-140.0225,0.2422
	l-8.8144,15.3418l151.5722-0.2334c1.1563,8.2939,1.7569,16.1757,1.7662,23.9951l0.0092,3.4609l23.1426,1.8467v-4.0615h-3.7568
	l3.7568-0.126c0.0088-8.3477-0.5112-16.7227-1.5513-25.169l42.8785-0.0625c-8.2852,7.1192-14.5616,16.211-18.2832,26.5235
	l-1.6768,4.6172l30.9888,2.5019l1.4702-7.3164l-4.187-1.3808c1.7304-2.4668,3.7661-4.753,6.0346-6.8243l1.9366-1.7392
	l-6.4024-16.4004h0.0093l-5.9629-15.3145l-49.2358,0.0713c-10.3921-51.7192-41.2549-98.3857-85.0752-128.4062l-3.3535-2.2998
	l-11.5577,20.1386l2.8243,1.9551C344.9102,248.0703,370.8682,286.5283,380.8838,330.6709z M187.1152,370.7871
	c0-7.2988,4.6988-13.7901,11.6836-16.1572l1.3448-0.4493l13.0644-22.7119l-5.7476-0.834c-1.0581-0.0713-2.1157-0.1435-3.1831-0.1435
	c-22.2192,0-40.3046,18.0771-40.3046,40.2959c0,22.2197,18.0854,40.2959,40.3046,40.2959c14.3106,0,27.689-7.7383,34.8711-20.1924
	l2.9952-5.1475l-26.5054-2.1425l-1.148,0.8613c-3.0127,2.2676-6.5454,3.4697-10.2129,3.4697
	C194.8086,387.9316,187.1152,380.247,187.1152,370.7871z M502.7402,360.9873v-5.5781c0.3677,0.1171,0.7442,0.2334,1.1031,0.3593
	l2.4751,0.8428l15.1533-18.5615l-4.4834-2.0176c-6.5908-2.9492-13.5938-4.7344-20.8384-5.2988v-0.2149l-4.0259-0.0361
	l-12.8945,0.0537l15.6475,40.0723L502.7402,360.9873z"/>
</svg>
